<svg width="41" height="41" fill="none" xmlns="http://www.w3.org/2000/svg"><circle cx="20.866" cy="20.327" r="20" fill="#fff"/><path fill-rule="evenodd" clip-rule="evenodd" d="M26.529 21.83c-.256-.15-1.582-.875-1.828-.977-.246-.103-.428-.158-.62.115-.192.272-.737.88-.9 1.048-.165.168-.326.196-.595.047a7.51 7.51 0 0 1-2.148-1.457 8.465 8.465 0 0 1-1.446-1.988c-.149-.285 0-.43.14-.563.141-.134.282-.317.436-.461a1.96 1.96 0 0 0 .29-.453.534.534 0 0 0 0-.49c-.065-.142-.559-1.535-.769-2.096-.21-.56-.443-.503-.596-.508-.154-.006-.34-.037-.512-.045a1.003 1.003 0 0 0-.74.322c-.317.289-.571.64-.747 1.035a3.19 3.19 0 0 0-.277 1.255c-.051 1.37.875 2.735 1.006 2.926.13.192 1.771 3.165 4.498 4.388 2.726 1.224 2.744.849 3.246.823.502-.026 1.616-.608 1.872-1.255.256-.647.27-1.202.207-1.31-.064-.107-.256-.196-.512-.346l-.005-.01ZM21.524 8.425a10.49 10.49 0 0 0-5.381 1.49 10.808 10.808 0 0 0-3.914 4.062 11.125 11.125 0 0 0-1.38 5.527 11.115 11.115 0 0 0 1.533 5.485l-1.928 5.86 5.911-1.936a10.462 10.462 0 0 0 9.386.466 10.694 10.694 0 0 0 3.883-2.927 11.014 11.014 0 0 0 2.227-4.378 11.17 11.17 0 0 0 .117-4.934 11.043 11.043 0 0 0-2.017-4.483 10.73 10.73 0 0 0-3.739-3.117 10.476 10.476 0 0 0-4.698-1.115Z" fill="#5E50A2"/></svg>