<svg width="41" height="41" fill="none" xmlns="http://www.w3.org/2000/svg"><circle cx="20.786" cy="20.327" r="20" fill="#5E50A2"/><path fill-rule="evenodd" clip-rule="evenodd" d="M26.448 21.83c-.256-.15-1.582-.875-1.828-.977-.245-.103-.427-.158-.619.115-.192.272-.737.88-.901 1.048-.164.168-.325.196-.594.047a7.51 7.51 0 0 1-2.148-1.457 8.462 8.462 0 0 1-1.446-1.988c-.149-.285 0-.43.14-.563.141-.134.282-.317.436-.461.116-.137.213-.29.289-.453a.534.534 0 0 0 0-.49c-.064-.142-.558-1.535-.768-2.096-.21-.56-.443-.503-.597-.508-.153-.006-.34-.037-.512-.045a1.003 1.003 0 0 0-.74.322 3.14 3.14 0 0 0-1.023 2.29c-.052 1.37.875 2.735 1.006 2.926.13.192 1.771 3.165 4.498 4.388 2.726 1.224 2.744.849 3.246.823.502-.026 1.615-.608 1.871-1.255.256-.647.271-1.202.207-1.31-.064-.107-.256-.196-.512-.346l-.005-.01ZM21.443 8.425a10.49 10.49 0 0 0-5.38 1.49 10.81 10.81 0 0 0-3.914 4.062 11.126 11.126 0 0 0-1.38 5.527 11.115 11.115 0 0 0 1.533 5.485l-1.928 5.86 5.911-1.936a10.461 10.461 0 0 0 9.386.466 10.694 10.694 0 0 0 3.882-2.927 11.014 11.014 0 0 0 2.228-4.378 11.17 11.17 0 0 0 .117-4.934 11.045 11.045 0 0 0-2.017-4.483 10.73 10.73 0 0 0-3.74-3.117 10.476 10.476 0 0 0-4.697-1.115Z" fill="#fff"/></svg>