<svg width="41" height="41" fill="none" xmlns="http://www.w3.org/2000/svg"><circle cx="20.866" cy="20.327" r="20" fill="#fff"/><path d="M29.678 10.948c-.588-.534-3.125-2.129-8.419-2.152 0 0-6.269-.412-9.312 2.345-1.693 1.672-2.264 4.159-2.327 7.193-.062 3.035-.386 8.833 5.165 10.375l-.025 4.682c0 .264.042.445.193.483.11.026.272-.03.41-.168.888-.892 3.73-4.32 3.73-4.32 3.812.25 6.846-.503 7.172-.61.77-.247 4.93-.605 5.634-6.292.727-5.863-.268-9.864-2.22-11.536Z" fill="#5E50A2"/><path d="M23.95 18.085c-.068-1.388-.773-2.117-2.115-2.187" stroke="#fff" stroke-linecap="round" stroke-linejoin="round"/><path d="M25.766 18.694c.028-1.293-.355-2.373-1.149-3.241-.797-.87-1.902-1.35-3.319-1.454" stroke="#fff" stroke-linecap="round" stroke-linejoin="round"/><path d="M27.626 19.422c-.017-2.244-.688-4.012-2.012-5.302-1.323-1.291-2.97-1.943-4.94-1.957" stroke="#fff" stroke-linecap="round" stroke-linejoin="round"/><path d="M21.906 22.826s.497.042.765-.288l.523-.657c.251-.326.86-.534 1.455-.202.446.254.879.53 1.297.829.395.29 1.205.965 1.207.965.386.326.475.803.212 1.307l-.002.01a5.45 5.45 0 0 1-1.087 1.34c-.005.002-.005.004-.01.007-.374.313-.742.49-1.103.533a1.47 1.47 0 0 1-.63-.062l-.013-.017c-.556-.157-1.486-.55-3.034-1.404a18.07 18.07 0 0 1-2.55-1.684 13.391 13.391 0 0 1-1.146-1.017l-.039-.038-.038-.04-.039-.038-.039-.038c-.36-.363-.7-.746-1.017-1.147a18.084 18.084 0 0 1-1.683-2.549c-.854-1.548-1.248-2.477-1.405-3.035l-.017-.011a1.47 1.47 0 0 1-.072-.47.708.708 0 0 1 .01-.161c.045-.36.223-.73.535-1.105.002-.004.005-.004.007-.01a5.438 5.438 0 0 1 1.339-1.086l.01-.002c.504-.263.982-.174 1.307.21.002.002.676.811.965 1.206.298.419.575.853.83 1.3.33.594.123 1.203-.203 1.454l-.657.523c-.331.268-.288.765-.288.765s.973 3.684 4.61 4.612Z" fill="#fff"/></svg>