<svg width="41" height="41" fill="none" xmlns="http://www.w3.org/2000/svg"><circle cx="20.786" cy="20.327" r="20" fill="#5E50A2"/><path d="M29.598 10.948c-.588-.534-3.125-2.129-8.419-2.152 0 0-6.269-.412-9.312 2.345-1.693 1.672-2.264 4.159-2.327 7.193-.062 3.035-.386 8.833 5.165 10.375l-.025 4.682c0 .264.042.445.194.483.108.026.271-.03.41-.168.887-.892 3.729-4.32 3.729-4.32 3.813.25 6.846-.503 7.172-.61.77-.247 4.93-.605 5.634-6.292.728-5.863-.268-9.864-2.22-11.536Z" fill="#fff"/><path d="M23.87 18.085c-.068-1.388-.773-2.117-2.114-2.187" stroke="#5E50A2" stroke-linecap="round" stroke-linejoin="round"/><path d="M25.687 18.694c.028-1.293-.356-2.373-1.15-3.241-.797-.87-1.901-1.35-3.319-1.454" stroke="#5E50A2" stroke-linecap="round" stroke-linejoin="round"/><path d="M27.546 19.422c-.017-2.244-.688-4.012-2.012-5.302-1.324-1.291-2.97-1.943-4.94-1.957" stroke="#5E50A2" stroke-linecap="round" stroke-linejoin="round"/><path d="M21.826 22.826s.497.042.765-.288l.523-.657c.252-.326.86-.534 1.455-.202.446.254.88.53 1.298.829.395.29 1.204.965 1.206.965.386.326.475.803.212 1.307l-.002.01a5.45 5.45 0 0 1-1.087 1.34c-.005.002-.005.004-.01.007-.374.313-.742.49-1.103.533a1.47 1.47 0 0 1-.63-.062l-.013-.017c-.556-.157-1.486-.55-3.034-1.404a18.064 18.064 0 0 1-2.55-1.684 13.376 13.376 0 0 1-1.146-1.017l-.038-.038-.04-.04-.038-.038-.038-.038c-.361-.363-.7-.746-1.017-1.147a18.084 18.084 0 0 1-1.684-2.549c-.854-1.548-1.247-2.477-1.404-3.035l-.018-.011a1.473 1.473 0 0 1-.071-.47.708.708 0 0 1 .01-.161c.044-.36.223-.73.534-1.105.002-.004.005-.004.007-.01a5.44 5.44 0 0 1 1.339-1.086l.01-.002c.504-.263.982-.174 1.307.21.002.002.676.811.966 1.206.297.419.574.853.828 1.3.332.594.124 1.203-.202 1.454l-.657.523c-.331.268-.288.765-.288.765s.974 3.684 4.61 4.612Z" fill="#5E50A2"/></svg>