<svg width="60" height="61" fill="none" xmlns="http://www.w3.org/2000/svg"><circle cx="30" cy="30.328" r="30" fill="#65C6A2"/><path d="M34.5 23.579c-1.171-.304-2.798-.75-4.103-.75-6.432 0-11.647 4.001-11.647 8.937 0 2.837 1.722 5.364 4.407 7.002l-.727 2.4a.9.9 0 0 0 .861 1.16h2.646a.9.9 0 0 0 .54-.18l2.092-1.57h3.656l2.091 1.57a.9.9 0 0 0 .54.18h2.647a.9.9 0 0 0 .861-1.16l-.727-2.4c1.6-.976 2.857-2.267 3.613-3.752M34.5 23.579l6.75-2.25-.126 5.442 3.126 1.308v5.25l-2.889 1.5" stroke="#fff" stroke-width="2.5" stroke-linecap="round" stroke-linejoin="round"/><path d="M36 30.329a.75.75 0 1 1 0-1.5.75.75 0 0 1 0 1.5Z" fill="#fff" stroke="#fff" stroke-width="2.5" stroke-linecap="round" stroke-linejoin="round"/><path d="M15.75 25.829s0 3.6 3 4.5" stroke="#fff" stroke-width="2.5" stroke-linecap="round" stroke-linejoin="round"/><path d="M31.951 22.458a5.427 5.427 0 0 0 .299-1.782c0-2.953-2.35-5.347-5.25-5.347s-5.25 2.394-5.25 5.347c0 1.412.538 2.697 1.416 3.653" stroke="#fff" stroke-width="2.5" stroke-linejoin="round"/></svg>