<svg width="60" height="61" fill="none" xmlns="http://www.w3.org/2000/svg"><circle cx="30" cy="30.328" r="30" fill="#65C6A2"/><path d="M22.5 34.828a1.5 1.5 0 1 0 0-3 1.5 1.5 0 0 0 0 3Z" fill="#fff" stroke="#fff" stroke-width="2.5" stroke-linecap="round" stroke-linejoin="round"/><path d="M15 25.828h30m-30 0v-5.1a.9.9 0 0 1 .9-.9h28.2a.9.9 0 0 1 .9.9v5.1H15Zm0 0v14.1a.9.9 0 0 0 .9.9h28.2a.9.9 0 0 0 .9-.9v-14.1H15Z" stroke="#fff" stroke-width="2.5" stroke-linecap="round" stroke-linejoin="round"/></svg>