<svg width="60" height="61" fill="none" xmlns="http://www.w3.org/2000/svg"><circle cx="30" cy="30.328" r="30" fill="#65C6A2"/><path d="M42.978 16.75H36.99l.75 7.5s1.5 1.5 3.75 1.5a4.844 4.844 0 0 0 3.208-1.209.754.754 0 0 0 .224-.697l-1.056-6.341a.9.9 0 0 0-.888-.752Z" stroke="#fff" stroke-width="2.5"/><path d="m36.99 16.75.75 7.5s-1.5 1.5-3.75 1.5-3.75-1.5-3.75-1.5v-7.5h6.75Zm-6.75 0v7.5s-1.5 1.5-3.75 1.5-3.75-1.5-3.75-1.5l.75-7.5h6.75Z" stroke="#fff" stroke-width="2.5"/><path d="M23.49 16.75h-5.987a.9.9 0 0 0-.888.753l-1.057 6.34a.754.754 0 0 0 .225.698 4.843 4.843 0 0 0 3.207 1.21c2.25 0 3.75-1.5 3.75-1.5l.75-7.5Z" stroke="#fff" stroke-width="2.5"/><path d="M16.75 25.75v15a3 3 0 0 0 3 3h21a3 3 0 0 0 3-3v-15" stroke="#fff" stroke-width="2.5"/><path d="M34.5 43.75v-9a3 3 0 0 0-3-3h-3a3 3 0 0 0-3 3v9" stroke="#fff" stroke-width="2.5" stroke-miterlimit="16"/></svg>