<svg width="61" height="61" fill="none" xmlns="http://www.w3.org/2000/svg"><circle cx="30.866" cy="30.327" r="30" fill="#65C6A2"/><path d="M27.866 40.827v-21m6 0h11.1a.9.9 0 0 1 .9.9v19.2a.9.9 0 0 1-.9.9h-11.1v-21Zm0 0v21-21Zm0 0h-6 6Zm0 21h-6 6Zm-6 0h-11.1a.9.9 0 0 1-.9-.9v-19.2a.9.9 0 0 1 .9-.9h11.1v21Z" stroke="#fff" stroke-width="2.5" stroke-linecap="round" stroke-linejoin="round"/><path d="M23.366 27.1c0-.62-.62-1.047-1.124-.684a4.494 4.494 0 0 0-1.876 3.656c0 1.506.74 2.839 1.876 3.656.505.362 1.124-.064 1.124-.685V27.1Zm15.001 0c0-.62.62-1.047 1.124-.684a4.494 4.494 0 0 1 1.876 3.656c0 1.506-.74 2.839-1.876 3.656-.505.362-1.124-.064-1.124-.685V27.1Z" fill="#fff"/></svg>