<svg width="60" height="61" fill="none" xmlns="http://www.w3.org/2000/svg"><circle cx="30" cy="30.328" r="30" fill="#65C6A2"/><path d="m18.952 32.45 1.559-3.304a.535.535 0 0 1 .978 0l1.559 3.304 3.485.534c.447.068.625.643.301.974l-2.521 2.57.595 3.631c.077.467-.391.822-.791.602L21 39.046l-3.117 1.715c-.4.22-.868-.135-.791-.602l.595-3.631-2.522-2.57c-.323-.33-.145-.906.302-.974l3.485-.534Zm18 0 1.559-3.304a.535.535 0 0 1 .978 0l1.559 3.304 3.485.534c.447.068.625.643.301.974l-2.521 2.57.595 3.631c.077.467-.391.822-.791.602L39 39.046l-3.117 1.715c-.4.22-.868-.135-.791-.602l.595-3.631-2.522-2.57c-.323-.33-.145-.906.302-.974l3.485-.534Zm-9-13.5 1.559-3.304a.535.535 0 0 1 .978 0l1.559 3.305 3.485.533c.447.068.625.643.301.973l-2.521 2.57.595 3.632c.077.467-.391.822-.791.602L30 25.546l-3.117 1.715c-.4.22-.868-.135-.791-.602l.595-3.631-2.522-2.57c-.323-.33-.145-.906.302-.974l3.485-.533Z" stroke="#fff" stroke-width="2.5" stroke-linecap="round" stroke-linejoin="round"/></svg>