<svg width="60" height="61" fill="none" xmlns="http://www.w3.org/2000/svg"><circle cx="30" cy="30.327" r="30" fill="#65C6A2"/><path d="M30 15.328v6m-12 0 3.75 3.75m16.5 0 3.75-3.75m-25.5 13.5H21m9 0 1.5-9m7.5 9h4.5M24.75 39.33H18a14.934 14.934 0 0 1-3-9.002c0-8.284 6.716-15 15-15 8.284 0 15 6.716 15 15 0 3.378-1.116 6.494-3 9.002l-6.75-.002" stroke="#fff" stroke-width="2.5" stroke-linecap="round" stroke-linejoin="round"/><path d="M30 43.828a4.5 4.5 0 1 0 0-9 4.5 4.5 0 0 0 0 9Z" stroke="#fff" stroke-width="2.5" stroke-linecap="round" stroke-linejoin="round"/></svg>