<svg width="47" height="49" fill="none" xmlns="http://www.w3.org/2000/svg"><path d="M0 15.68a5 5 0 0 1 3.886-4.874L37.189 3.19c3.13-.716 6.115 1.663 6.115 4.874v26.597a5 5 0 0 1-3.886 4.874L6.116 47.15C2.985 47.866 0 45.487 0 42.276V15.68Z" fill="#5E50A2"/><path d="M0 15.75a5 5 0 0 1 5-5h36.068a5 5 0 0 1 5 5v26.855a5 5 0 0 1-5 5H5a5 5 0 0 1-5-5V15.75Z" fill="#BDB6DD"/><path d="M27.64 29.177a4.607 4.607 0 0 1 4.608-4.607h13.82v9.214h-13.82a4.607 4.607 0 0 1-4.607-4.607Z" fill="#5E50A2"/><circle cx="32.055" cy="29.177" r="2.267" fill="#BDB6DD"/><circle cx="23.034" cy="10.75" r="9.548" fill="#5E50A2" stroke="#fff" stroke-width="1.5"/><path d="M23.034 6.827v7.846m-3.923-3.923h7.846" stroke="#65C6A2" stroke-width="1.5" stroke-linecap="round"/></svg>