<svg width="47" height="49" fill="none" xmlns="http://www.w3.org/2000/svg"><path d="M.866 15.627a5 5 0 0 1 3.886-4.874l33.304-7.615c3.13-.716 6.114 1.663 6.114 4.874v26.596a5 5 0 0 1-3.885 4.875L6.98 47.098c-3.13.716-6.115-1.663-6.115-4.874V15.628Z" fill="#fff"/><path d="M1.616 15.698a4.25 4.25 0 0 1 4.25-4.25h36.068a4.25 4.25 0 0 1 4.25 4.25v26.855a4.25 4.25 0 0 1-4.25 4.25H5.866a4.25 4.25 0 0 1-4.25-4.25V15.698Z" fill="#fff" stroke="#5E50A2" stroke-width="1.5"/><path d="M28.507 29.125a4.607 4.607 0 0 1 4.607-4.607h13.82v9.214h-13.82a4.607 4.607 0 0 1-4.607-4.607Z" fill="#5E50A2"/><circle cx="32.921" cy="29.125" r="2.267" fill="#fff"/><circle cx="23.901" cy="10.698" r="9.548" fill="#fff" stroke="#5E50A2" stroke-width="1.5"/><path d="M23.9 6.775v7.846m-3.923-3.923h7.846" stroke="#65C6A2" stroke-width="1.5" stroke-linecap="round"/></svg>