<svg width="40" height="41" fill="none" xmlns="http://www.w3.org/2000/svg"><circle cx="20" cy="20.505" r="20" fill="#fff"/><path d="M28.812 11.126c-.588-.534-3.125-2.128-8.419-2.152 0 0-6.269-.411-9.312 2.345-1.694 1.672-2.264 4.159-2.327 7.194-.062 3.034-.386 8.832 5.165 10.374l-.025 4.682c0 .265.042.446.193.483.11.026.272-.03.41-.168.888-.891 3.73-4.32 3.73-4.32 3.812.25 6.846-.503 7.172-.61.77-.247 4.93-.605 5.634-6.292.727-5.862-.268-9.864-2.22-11.536Z" fill="#5E50A2"/><path d="M23.085 18.264c-.07-1.388-.774-2.117-2.116-2.187" stroke="#fff" stroke-linecap="round" stroke-linejoin="round"/><path d="M24.9 18.872c.029-1.293-.355-2.373-1.149-3.24-.797-.872-1.902-1.351-3.319-1.455" stroke="#fff" stroke-linecap="round" stroke-linejoin="round"/><path d="M26.76 19.6c-.017-2.244-.688-4.012-2.012-5.302s-2.97-1.943-4.94-1.957" stroke="#fff" stroke-linecap="round" stroke-linejoin="round"/><path d="M21.04 23.004s.497.042.765-.288l.523-.657c.251-.326.86-.534 1.455-.202.446.254.879.531 1.297.829.396.29 1.205.965 1.207.965.386.326.475.804.212 1.307l-.002.01a5.45 5.45 0 0 1-1.087 1.34c-.005.002-.005.005-.01.007-.374.313-.742.49-1.103.534a1.472 1.472 0 0 1-.63-.062l-.013-.018c-.556-.157-1.486-.55-3.034-1.404a18.073 18.073 0 0 1-2.55-1.684 13.327 13.327 0 0 1-1.146-1.017l-.039-.038-.038-.039-.039-.038-.039-.04c-.36-.362-.7-.744-1.016-1.146a18.083 18.083 0 0 1-1.684-2.549c-.855-1.548-1.248-2.477-1.405-3.034l-.017-.012a1.47 1.47 0 0 1-.072-.47.708.708 0 0 1 .01-.16c.045-.362.223-.73.535-1.105.002-.005.005-.005.007-.01a5.438 5.438 0 0 1 1.339-1.087l.01-.002c.504-.263.982-.174 1.307.21.002.002.676.811.966 1.206.297.42.574.853.828 1.3.332.594.124 1.204-.202 1.455l-.657.522c-.331.268-.288.765-.288.765s.973 3.684 4.61 4.612Z" fill="#fff"/></svg>