<svg width="41" height="41" fill="none" xmlns="http://www.w3.org/2000/svg"><circle cx="20.866" cy="20.5" r="20" fill="#65C6A2"/><path d="M29.678 11.12c-.588-.534-3.125-2.128-8.419-2.15 0 0-6.269-.413-9.312 2.343-1.694 1.673-2.264 4.16-2.327 7.194-.062 3.035-.386 8.832 5.164 10.374 0 0-.021 4.304-.024 4.683 0 .264.042.445.193.483.109.026.272-.03.41-.168.888-.892 3.73-4.32 3.73-4.32 3.812.25 6.846-.504 7.172-.61.77-.248 4.93-.605 5.634-6.292.727-5.863-.268-9.864-2.221-11.537Z" fill="#fff"/><path d="M23.95 18.258c-.068-1.388-.773-2.117-2.115-2.187" stroke="#65C6A2" stroke-linecap="round" stroke-linejoin="round"/><path d="M25.766 18.867c.028-1.294-.355-2.374-1.149-3.242-.798-.87-1.902-1.35-3.319-1.454" stroke="#65C6A2" stroke-linecap="round" stroke-linejoin="round"/><path d="M27.626 19.594c-.017-2.244-.688-4.011-2.012-5.302-1.324-1.29-2.97-1.943-4.94-1.957" stroke="#65C6A2" stroke-linecap="round" stroke-linejoin="round"/><path d="M21.906 22.999s.497.042.765-.288l.522-.657c.252-.326.86-.534 1.456-.202.446.254.879.53 1.297.828.395.29 1.204.966 1.207.966.385.325.474.803.212 1.307l-.002.01a5.446 5.446 0 0 1-1.087 1.339l-.01.008c-.374.313-.742.49-1.103.533a1.467 1.467 0 0 1-.63-.062l-.013-.017c-.557-.157-1.486-.55-3.034-1.404a18.073 18.073 0 0 1-2.55-1.684 13.376 13.376 0 0 1-1.146-1.017l-.039-.039-.039-.038-.038-.039-.039-.038c-.36-.363-.7-.746-1.017-1.147a18.083 18.083 0 0 1-1.684-2.55c-.854-1.547-1.247-2.476-1.404-3.034l-.017-.012a1.467 1.467 0 0 1-.072-.469.708.708 0 0 1 .01-.161c.045-.361.223-.73.534-1.105.003-.004.006-.004.008-.01a5.438 5.438 0 0 1 1.338-1.086l.011-.003c.504-.262.982-.173 1.307.21.002.003.676.812.965 1.207.298.419.575.852.83 1.299.33.595.123 1.204-.203 1.455l-.657.523c-.332.267-.288.765-.288.765s.973 3.683 4.61 4.612Z" fill="#65C6A2"/></svg>