<svg width="40" height="41" fill="none" xmlns="http://www.w3.org/2000/svg"><circle cx="20" cy="20.505" r="20" fill="#fff"/><path fill-rule="evenodd" clip-rule="evenodd" d="M25.662 22.008c-.256-.15-1.582-.875-1.828-.977-.245-.102-.427-.157-.62.115-.191.273-.736.88-.9 1.048-.164.168-.325.197-.594.047a7.51 7.51 0 0 1-2.148-1.456 8.466 8.466 0 0 1-1.447-1.989c-.148-.285 0-.43.141-.563.141-.134.282-.317.436-.461.116-.137.213-.29.289-.453a.533.533 0 0 0 0-.49c-.064-.142-.558-1.535-.768-2.096-.21-.56-.443-.503-.597-.508-.153-.005-.34-.037-.512-.045a1.002 1.002 0 0 0-.74.323c-.316.288-.57.64-.747 1.034a3.19 3.19 0 0 0-.277 1.255c-.05 1.37.876 2.735 1.006 2.926.131.192 1.772 3.165 4.498 4.389 2.727 1.223 2.745.848 3.247.822.501-.026 1.615-.608 1.871-1.255.256-.647.271-1.202.207-1.31-.064-.107-.256-.196-.512-.346l-.005-.01ZM20.657 8.603a10.49 10.49 0 0 0-5.38 1.49 10.808 10.808 0 0 0-3.915 4.062 11.125 11.125 0 0 0-1.379 5.528 11.114 11.114 0 0 0 1.532 5.484l-1.927 5.86 5.91-1.935a10.462 10.462 0 0 0 9.386.466 10.694 10.694 0 0 0 3.883-2.928 11.013 11.013 0 0 0 2.227-4.377c.407-1.614.447-3.302.118-4.934a11.043 11.043 0 0 0-2.017-4.483 10.73 10.73 0 0 0-3.74-3.118 10.475 10.475 0 0 0-4.698-1.115Z" fill="#5E50A2"/></svg>