<svg width="41" height="41" fill="none" xmlns="http://www.w3.org/2000/svg"><circle cx="20.866" cy="20.5" r="20" fill="#65C6A2"/><path fill-rule="evenodd" clip-rule="evenodd" d="M26.528 22.003c-.256-.15-1.582-.875-1.828-.977-.245-.103-.427-.158-.62.115-.191.272-.737.88-.9 1.048-.164.167-.326.196-.594.047a7.51 7.51 0 0 1-2.148-1.457 8.465 8.465 0 0 1-1.447-1.988c-.148-.286 0-.43.141-.563.14-.134.282-.317.435-.461a1.98 1.98 0 0 0 .29-.454.534.534 0 0 0 0-.49c-.064-.14-.558-1.535-.768-2.095-.21-.56-.443-.503-.597-.508-.154-.006-.34-.037-.512-.045a1.005 1.005 0 0 0-.74.322 3.13 3.13 0 0 0-.747 1.035c-.176.394-.27.821-.277 1.255-.051 1.37.876 2.735 1.006 2.926.13.191 1.772 3.165 4.498 4.388 2.727 1.224 2.745.849 3.247.823.501-.026 1.615-.608 1.87-1.255.257-.647.272-1.203.208-1.31-.064-.107-.256-.197-.512-.346l-.005-.01ZM21.523 8.598a10.49 10.49 0 0 0-5.381 1.49 10.808 10.808 0 0 0-3.914 4.062 11.125 11.125 0 0 0-1.379 5.527 11.115 11.115 0 0 0 1.532 5.485l-1.928 5.86 5.912-1.936a10.46 10.46 0 0 0 9.386.466 10.697 10.697 0 0 0 3.882-2.927 11.014 11.014 0 0 0 2.227-4.378 11.17 11.17 0 0 0 .117-4.934 11.044 11.044 0 0 0-2.016-4.483 10.73 10.73 0 0 0-3.74-3.117 10.476 10.476 0 0 0-4.698-1.115Z" fill="#fff"/></svg>